<svg width="69" height="46" viewBox="0 0 69 46" fill="none" xmlns="http://www.w3.org/2000/svg">
<path d="M38 23C38 14.7157 31.2843 8 23 8C14.7157 8 8 14.7157 8 23C8 31.2843 14.7157 38 23 38V46C10.2975 46 0 35.7025 0 23C0 10.2975 10.2975 0 23 0C35.7025 0 46 10.2975 46 23C46 35.7025 35.7025 46 23 46V38C31.2843 38 38 31.2843 38 23Z" fill="black"/>
<path d="M61 23C61 14.7157 54.2843 8 46 8C37.7157 8 31 14.7157 31 23C31 31.2843 37.7157 38 46 38V46C33.2975 46 23 35.7025 23 23C23 10.2975 33.2975 0 46 0C58.7025 0 69 10.2975 69 23C69 35.7025 58.7025 46 46 46V38C54.2843 38 61 31.2843 61 23Z" fill="black"/>
</svg>
